<svg width="37" height="20" viewBox="0 0 37 20" fill="none" xmlns="http://www.w3.org/2000/svg">
<path d="M28.3464 8.59717C31.5988 8.59717 34.4998 9.89397 36.3882 11.9141L28.3464 8.59717Z" fill="#AEBCC3"/>
<path d="M0 15.7115C0.436574 16.4865 1.29422 17.0109 2.28362 17.0109H33.9546C35.4013 17.0109 36.5715 15.8949 36.5715 14.518V13.8154H35.0938C34.9262 13.8189 34.7639 13.7559 34.6425 13.6402C34.521 13.5246 34.4502 13.3656 34.4454 13.198V10.2995C32.6381 9.13638 30.5343 8.51762 28.3851 8.51707H28.4496L26.228 8.50674C24.0632 3.85684 19.8706 0 14.3527 0C8.84256 0 4.22108 3.62176 2.96302 8.50415H2.28362C0.852482 8.50415 0.0180829 9.6098 0.0180829 10.9738" fill="#32818F"/>
<path d="M0 14.4792H0.555405C0.763034 14.484 0.969576 14.4479 1.16323 14.3729C1.35688 14.2978 1.53385 14.1853 1.68403 14.0419C1.8342 13.8984 1.95464 13.7268 2.03846 13.5368C2.12228 13.3467 2.16784 13.1421 2.17254 12.9344V12.224C2.17254 11.3716 1.44922 10.6818 0.555405 10.6818H0.0154995" fill="#F5BB1D"/>
<path d="M3.84644 15.7115C3.84644 16.7481 4.27864 17.7422 5.04796 18.4752C5.81728 19.2082 6.8607 19.62 7.94868 19.62C9.03666 19.62 10.0801 19.2082 10.8494 18.4752C11.6187 17.7422 12.0509 16.7481 12.0509 15.7115C12.0509 14.6749 11.6187 13.6807 10.8494 12.9478C10.0801 12.2148 9.03666 11.803 7.94868 11.803C6.8607 11.803 5.81728 12.2148 5.04796 12.9478C4.27864 13.6807 3.84644 14.6749 3.84644 15.7115Z" fill="#455963"/>
<path d="M6.22314 15.7115C6.22314 16.148 6.40495 16.5665 6.72857 16.8751C7.05219 17.1837 7.49111 17.3571 7.94877 17.3571C8.40644 17.3571 8.84536 17.1837 9.16898 16.8751C9.4926 16.5665 9.6744 16.148 9.6744 15.7115C9.6744 15.2751 9.4926 14.8565 9.16898 14.5479C8.84536 14.2393 8.40644 14.066 7.94877 14.066C7.49111 14.066 7.05219 14.2393 6.72857 14.5479C6.40495 14.8565 6.22314 15.2751 6.22314 15.7115Z" fill="#AEBCC3"/>
<path d="M23.7068 15.7115C23.7068 16.7481 24.1387 17.7422 24.9076 18.4752C25.6764 19.2082 26.7192 19.62 27.8064 19.62C28.8937 19.62 29.9365 19.2082 30.7054 18.4752C31.4742 17.7422 31.9061 16.7481 31.9061 15.7115C31.9061 14.6749 31.4742 13.6807 30.7054 12.9478C29.9365 12.2148 28.8937 11.803 27.8064 11.803C26.7192 11.803 25.6764 12.2148 24.9076 12.9478C24.1387 13.6807 23.7068 14.6749 23.7068 15.7115Z" fill="#455963"/>
<path d="M26.0833 15.7115C26.0833 16.148 26.2651 16.5665 26.5887 16.8751C26.9123 17.1837 27.3512 17.3571 27.8089 17.3571C28.2665 17.3571 28.7055 17.1837 29.0291 16.8751C29.3527 16.5665 29.5345 16.148 29.5345 15.7115C29.5345 15.2751 29.3527 14.8565 29.0291 14.5479C28.7055 14.2393 28.2665 14.066 27.8089 14.066C27.3512 14.066 26.9123 14.2393 26.5887 14.5479C26.2651 14.8565 26.0833 15.2751 26.0833 15.7115Z" fill="#AEBCC3"/>
<path d="M36.3905 11.9219V11.9141C35.8101 11.2989 35.1569 10.7567 34.4453 10.2996V13.198C34.4453 13.539 34.7372 13.8154 35.0937 13.8154H36.5714V12.1079L36.3905 11.9219Z" fill="#F5BB1D"/>
<path d="M13.7586 1.60938C9.52456 1.86512 6.03714 4.70931 5.01416 8.50415H13.7586V1.60938ZM15.3783 8.50415H24.1227C22.459 4.99864 19.3953 2.06145 15.3783 1.64037V8.50415Z" fill="#017AA2"/>
</svg>
