<svg width="68" height="127" viewBox="0 0 68 127" fill="none" xmlns="http://www.w3.org/2000/svg">
<circle cx="52" cy="2" r="2" fill="#9D9D9D"/>
<circle cx="16" cy="125" r="2" fill="#9D9D9D"/>
<path d="M34.0528 68L33.9954 67.5033L34.0528 68ZM54 4L55.306 9.62385L59.5234 5.68091L54 4ZM14.9363 123.679C14.7277 123.43 14.5186 123.176 14.3095 122.919L13.5332 123.549C13.7455 123.81 13.9576 124.068 14.1694 124.321L14.9363 123.679ZM13.0756 121.354C12.6773 120.834 12.2802 120.3 11.8859 119.755L11.0753 120.34C11.4751 120.894 11.8777 121.435 12.2816 121.962L13.0756 121.354ZM10.7408 118.123C10.3699 117.578 10.003 117.024 9.64167 116.46L8.79975 117C9.16621 117.571 9.53823 118.134 9.91435 118.686L10.7408 118.123ZM8.59045 114.767C8.2499 114.2 7.916 113.626 7.59007 113.045L6.71795 113.534C7.04888 114.124 7.3878 114.707 7.73335 115.282L8.59045 114.767ZM6.64383 111.295C6.33787 110.707 6.04106 110.114 5.7547 109.516L4.85273 109.947C5.14405 110.556 5.44584 111.159 5.75677 111.757L6.64383 111.295ZM4.92783 107.707C4.66269 107.098 4.4094 106.486 4.16925 105.87L3.23769 106.234C3.48269 106.862 3.74092 107.486 4.011 108.106L4.92783 107.707ZM3.48595 104.007C3.27065 103.378 3.07023 102.748 2.88601 102.117L1.92609 102.398C2.11479 103.044 2.31988 103.689 2.53994 104.331L3.48595 104.007ZM2.37876 100.204C2.22533 99.5586 2.09025 98.9135 1.97492 98.2696L0.990587 98.4459C1.10937 99.109 1.24831 99.7725 1.40587 100.435L2.37876 100.204ZM1.68644 96.316C1.61053 95.658 1.55699 95.0025 1.52732 94.3508L0.528355 94.3963C0.559125 95.0722 0.614587 95.7507 0.693024 96.4306L1.68644 96.316ZM1.51213 92.3835C1.53278 91.7255 1.57997 91.0726 1.6553 90.4259L0.66201 90.3103C0.583294 90.9861 0.534118 91.6672 0.512625 92.3522L1.51213 92.3835ZM1.9699 88.4929C2.10449 87.8549 2.26927 87.2243 2.4659 86.6021L1.51239 86.3008C1.30561 86.955 1.13258 87.6173 0.991432 88.2865L1.9699 88.4929ZM3.14818 84.7733C3.40436 84.1815 3.69277 83.5987 4.01505 83.0259L3.14353 82.5356C2.80409 83.1389 2.5003 83.7528 2.23048 84.376L3.14818 84.7733ZM5.05797 81.377C5.42714 80.8543 5.82828 80.3413 6.26287 79.8388L5.50653 79.1847C5.05075 79.7116 4.6294 80.2504 4.24116 80.8001L5.05797 81.377ZM7.61282 78.4176C8.07526 77.9729 8.56762 77.538 9.09111 77.1136L8.46134 76.3368C7.9165 76.7785 7.40295 77.2321 6.91971 77.6967L7.61282 78.4176ZM10.6604 75.9387C11.1838 75.5765 11.7331 75.2233 12.3094 74.8798L11.7973 74.0208C11.2023 74.3756 10.6338 74.7409 10.0913 75.1164L10.6604 75.9387ZM14.0384 73.9206C14.6141 73.6234 15.213 73.3347 15.8357 73.0552L15.4262 72.1429C14.7874 72.4297 14.172 72.7262 13.5797 73.032L14.0384 73.9206ZM17.64 72.2974C18.2437 72.0604 18.8674 71.8311 19.5116 71.6099L19.1868 70.6641C18.5294 70.8898 17.8921 71.1241 17.2745 71.3666L17.64 72.2974ZM21.3985 71.0032C22.017 70.8172 22.6525 70.6382 23.3055 70.4663L23.051 69.4992C22.3871 69.674 21.7404 69.8561 21.1105 70.0455L21.3985 71.0032ZM25.2501 69.9878C25.8786 69.8435 26.5219 69.7054 27.1804 69.5737L26.9843 68.5931C26.3168 68.7266 25.6643 68.8667 25.0264 69.0131L25.2501 69.9878ZM29.1546 69.2061C29.7923 69.0959 30.4432 68.9913 31.1075 68.8925L30.9604 67.9034C30.2886 68.0033 29.6299 68.1091 28.9843 68.2207L29.1546 69.2061ZM33.09 68.6201C33.4269 68.5776 33.767 68.5364 34.1103 68.4967L33.9954 67.5033C33.6486 67.5434 33.305 67.585 32.9646 67.628L33.09 68.6201ZM34.1103 68.4967C34.4526 68.4571 34.7917 68.4156 35.1278 68.3722L34.9997 67.3804C34.6681 67.4232 34.3333 67.4642 33.9954 67.5033L34.1103 68.4967ZM37.1078 68.0892C37.7694 67.9852 38.4184 67.8736 39.055 67.7544L38.8709 66.7715C38.2442 66.8888 37.6048 66.9988 36.9526 67.1013L37.1078 68.0892ZM41.0277 67.3525C41.6819 67.208 42.3221 67.0552 42.9485 66.8941L42.6995 65.9256C42.0844 66.0837 41.4554 66.2339 40.8121 66.376L41.0277 67.3525ZM44.8917 66.3556C45.5377 66.1631 46.1678 65.9613 46.7823 65.7506L46.4579 64.8046C45.8565 65.0109 45.2394 65.2085 44.6061 65.3972L44.8917 66.3556ZM48.668 65.057C49.3009 64.8078 49.9158 64.5483 50.5129 64.279L50.1018 63.3675C49.5197 63.6299 48.9198 63.8831 48.3016 64.1266L48.668 65.057ZM52.3075 63.4132C52.9178 63.0985 53.5075 62.7727 54.0772 62.4362L53.5686 61.5752C53.0158 61.9018 52.4428 62.2184 51.8492 62.5244L52.3075 63.4132ZM55.7663 61.3681C56.3312 60.9858 56.8737 60.592 57.3943 60.1873L56.7805 59.3978C56.2775 59.7889 55.7529 60.1697 55.2059 60.5398L55.7663 61.3681ZM58.9449 58.8926C59.4511 58.4385 59.933 57.9729 60.3914 57.4965L59.6708 56.8031C59.2295 57.2618 58.7652 57.7104 58.2772 58.1482L58.9449 58.8926ZM61.7282 55.9973C62.1624 55.4712 62.571 54.934 62.9548 54.3867L62.1361 53.8125C61.7672 54.3385 61.3745 54.8549 60.9569 55.3608L61.7282 55.9973ZM64.0476 52.69C64.3911 52.1077 64.7092 51.5158 65.0029 50.9153L64.1046 50.4759C63.8222 51.0533 63.5163 51.6223 63.1862 52.182L64.0476 52.69ZM65.8185 49.0726C66.0676 48.4467 66.2925 47.8132 66.4943 47.1731L65.5405 46.8725C65.346 47.4897 65.1292 48.1002 64.8894 48.7028L65.8185 49.0726ZM67.0313 45.2324C67.1875 44.5807 67.3215 43.9234 67.4344 43.2618L66.4486 43.0936C66.3394 43.7341 66.2097 44.3697 66.0588 44.9994L67.0313 45.2324ZM67.71 41.2703C67.7812 40.6054 67.8325 39.9372 67.8649 39.2666L66.8661 39.2183C66.8346 39.8701 66.7847 40.5189 66.7156 41.1639L67.71 41.2703ZM67.9066 37.2619C67.9025 36.5952 67.8809 35.9271 67.8427 35.2587L66.8443 35.3158C66.8816 35.9677 66.9026 36.6188 66.9066 37.268L67.9066 37.2619ZM67.6801 33.2617C67.6104 32.5987 67.5252 31.9362 67.4255 31.2753L66.4367 31.4244C66.5342 32.071 66.6175 32.7186 66.6856 33.3664L67.6801 33.2617ZM67.085 29.3041C66.9578 28.6498 66.8172 27.9979 66.6639 27.3493L65.6907 27.5793C65.841 28.2152 65.9788 28.8541 66.1034 29.4949L67.085 29.3041ZM66.1667 25.4129C65.9885 24.77 65.7986 24.1313 65.5978 23.4979L64.6446 23.8001C64.8418 24.4221 65.0282 25.049 65.203 25.6799L66.1667 25.4129ZM64.9606 21.6061C64.7359 20.9759 64.5009 20.3519 64.2565 19.7352L63.3269 20.1036C63.567 20.7097 63.7979 21.3228 64.0187 21.942L64.9606 21.6061ZM63.4887 17.8903C63.2207 17.2761 62.9438 16.6704 62.6591 16.0743L61.7568 16.5053C62.0366 17.0912 62.3087 17.6865 62.5722 18.2903L63.4887 17.8903ZM61.7691 14.2901C61.4586 13.6937 61.1408 13.1086 60.8167 12.5361L59.9465 13.0287C60.2648 13.591 60.577 14.1657 60.8821 14.7518L61.7691 14.2901ZM59.7987 10.8121C59.4432 10.2349 59.0819 9.67302 58.7161 9.12787L57.8857 9.6851C58.2442 10.2192 58.5984 10.7701 58.9472 11.3364L59.7987 10.8121ZM57.5656 7.48863C57.161 6.93779 56.7525 6.40806 56.3417 5.90125L55.5648 6.53093C55.9652 7.02493 56.3641 7.54206 56.7597 8.08064L57.5656 7.48863Z" fill="#9D9D9D"/>
</svg>
