<svg width="16" height="20" viewBox="0 0 16 20" fill="none" xmlns="http://www.w3.org/2000/svg">
<path d="M13.8621 15.1725H2.13794V13.1035C2.13794 12.3418 2.75552 11.7242 3.51724 11.7242H12.4827C13.2445 11.7242 13.862 12.3418 13.862 13.1035V15.1725H13.8621Z" fill="#D1D4D1" fill-opacity="0.635294"/>
<path d="M3.05752 8.27588H0.413691C0.22334 8.27588 0.0688477 8.43037 0.0688477 8.62072V9.31037C0.0688477 9.50072 0.22334 9.65522 0.413691 9.65522H2.98092L3.05752 8.27588Z" fill="#D1D4D1" fill-opacity="0.635294"/>
<path d="M12.9426 8.27588L13.0192 9.65518H15.5864C15.7768 9.65518 15.9313 9.50068 15.9313 9.31033V8.62072C15.9313 8.43037 15.7768 8.27588 15.5864 8.27588H12.9426Z" fill="#D1D4D1" fill-opacity="0.635294"/>
<path d="M2.13784 13.1034C2.13784 12.5827 2.42991 12.1344 2.85612 11.9L2.98062 9.65515H0.758545V13.7931C0.758545 14.1741 1.06718 14.4827 1.44819 14.4827H2.13784V13.1034Z" fill="#D1D4D1"/>
<path d="M13.019 9.65515L13.1439 11.9C13.5697 12.1345 13.8618 12.5828 13.8618 13.1034V14.4827H14.5515C14.9325 14.4827 15.2411 14.1741 15.2411 13.7931V9.65515H13.019Z" fill="#D1D4D1"/>
<path d="M3.51722 11.7241H12.4827C12.7238 11.7241 12.9469 11.7914 13.1437 11.9L12.6207 2.48551C12.5434 1.09102 11.39 0 9.99343 0H6.00655C4.60999 0 3.45655 1.09102 3.37933 2.48551L2.8562 11.9C3.05308 11.7914 3.2762 11.7241 3.51722 11.7241Z" fill="#D1D4D1"/>
<path d="M11.2432 2.90678C11.0614 2.90678 10.9094 2.76471 10.8994 2.58093C10.8728 2.10057 10.4745 1.72401 9.9935 1.72401H6.00628C5.52526 1.72401 5.12729 2.10057 5.10077 2.58093C5.09007 2.77093 4.92975 2.91401 4.73733 2.90643C4.54733 2.89573 4.40147 2.733 4.41217 2.543C4.45909 1.69714 5.15909 1.03436 6.00631 1.03436H9.99354C10.8408 1.03436 11.5408 1.69714 11.5877 2.543C11.5984 2.733 11.4525 2.89577 11.2628 2.90643C11.2559 2.90678 11.2497 2.90678 11.2432 2.90678Z" fill="#D1D4D1" fill-opacity="0.635294"/>
<path d="M11.7932 20C11.4121 20 11.1035 19.6914 11.1035 19.3104V15.1724H12.4828V19.3104C12.4829 19.6914 12.1742 20 11.7932 20Z" fill="#D1D4D1"/>
<path d="M4.89663 19.3104V15.1724H3.51733V19.3104C3.51733 19.6914 3.82597 20 4.20698 20C4.588 20 4.89663 19.6914 4.89663 19.3104Z" fill="#D1D4D1"/>
</svg>
