<svg width="34" height="34" viewBox="0 0 34 34" fill="none" xmlns="http://www.w3.org/2000/svg">
<path d="M20.4339 25.0877C20.4339 25.1526 20.4211 25.2169 20.3962 25.2769C20.3713 25.3368 20.3348 25.3913 20.2888 25.4371C20.2427 25.4829 20.1882 25.5192 20.1281 25.5438C20.068 25.5685 20.0037 25.581 19.9388 25.5807H2.30128C2.17033 25.5807 2.04471 25.5288 1.95192 25.4365C1.85913 25.3441 1.80671 25.2187 1.80615 25.0877V5.52285C1.80615 5.25085 2.02928 5.02985 2.30128 5.02985H19.9388C20.215 5.02985 20.4339 5.25085 20.4339 5.52285V25.0877Z" fill="#43AA99"/>
<path d="M1.8042 12.1168H20.4341V17.969H1.8042V12.1168Z" fill="#84C5BD"/>
<path d="M32.5083 17.5865V25.279C32.5083 25.5553 32.2852 25.772 32.0132 25.772H21.1417C21.0109 25.772 20.8855 25.7201 20.7931 25.6276C20.7006 25.5352 20.6487 25.4098 20.6487 25.279V10.6633C20.6487 10.3892 20.8697 10.1682 21.1417 10.1682H29.9626" fill="#E1B030"/>
<path d="M31.3735 17.9711V17.6609L29.3207 11.6599H24.6563C24.6039 11.6599 24.5519 11.6702 24.5035 11.6903C24.455 11.7103 24.4109 11.7398 24.3738 11.7769C24.3368 11.814 24.3073 11.858 24.2872 11.9065C24.2672 11.9549 24.2568 12.0069 24.2568 12.0594V17.9711H31.3735Z" fill="#745448"/>
<path d="M6.08813 25.5808C6.08813 25.9985 6.17042 26.4122 6.33028 26.7981C6.49015 27.1841 6.72447 27.5348 7.01986 27.8302C7.31526 28.1256 7.66594 28.3599 8.0519 28.5198C8.43785 28.6796 8.85151 28.7619 9.26926 28.7619C9.68701 28.7619 10.1007 28.6796 10.4866 28.5198C10.8726 28.3599 11.2233 28.1256 11.5187 27.8302C11.8141 27.5348 12.0484 27.1841 12.2082 26.7981C12.3681 26.4122 12.4504 25.9985 12.4504 25.5808C12.4504 24.7371 12.1152 23.928 11.5187 23.3314C10.9221 22.7348 10.1129 22.3997 9.26926 22.3997C8.42557 22.3997 7.61644 22.7348 7.01986 23.3314C6.42329 23.928 6.08813 24.7371 6.08813 25.5808Z" fill="#B8A6A1"/>
<path d="M9.26936 29.4121C7.15711 29.4121 5.43799 27.6909 5.43799 25.5808C5.43799 23.4664 7.15711 21.7473 9.26936 21.7473C11.3816 21.7473 13.1029 23.4664 13.1029 25.5808C13.1029 27.6909 11.3816 29.4121 9.26936 29.4121ZM9.26936 23.0563C8.5998 23.0568 7.95779 23.3229 7.48414 23.7962C7.01049 24.2694 6.74386 24.9112 6.74274 25.5808C6.74232 26.0806 6.89014 26.5693 7.16752 26.985C7.44489 27.4008 7.83935 27.725 8.30099 27.9166C8.76264 28.1081 9.27072 28.1585 9.76098 28.0612C10.2512 27.964 10.7016 27.7235 11.0552 27.3702C11.4088 27.017 11.6496 26.5668 11.7473 26.0766C11.8449 25.5864 11.795 25.0783 11.6039 24.6165C11.4127 24.1547 11.0888 23.7599 10.6733 23.4822C10.2578 23.2045 9.76917 23.0563 9.26936 23.0563Z" fill="#44544A"/>
<path d="M23.3984 25.5808C23.3984 26.4245 23.7336 27.2336 24.3302 27.8302C24.9267 28.4268 25.7359 28.7619 26.5796 28.7619C27.4233 28.7619 28.2324 28.4268 28.829 27.8302C29.4255 27.2336 29.7607 26.4245 29.7607 25.5808C29.7607 24.7371 29.4255 23.928 28.829 23.3314C28.2324 22.7348 27.4233 22.3997 26.5796 22.3997C25.7359 22.3997 24.9267 22.7348 24.3302 23.3314C23.7336 23.928 23.3984 24.7371 23.3984 25.5808Z" fill="#B8A6A1"/>
<path d="M26.5796 29.4121C24.4673 29.4121 22.7461 27.6909 22.7461 25.5808C22.7461 23.4664 24.4673 21.7473 26.5796 21.7473C28.6918 21.7473 30.411 23.4664 30.411 25.5808C30.411 27.6909 28.6918 29.4121 26.5796 29.4121ZM26.5796 23.0563C25.9095 23.0563 25.2668 23.3224 24.793 23.7963C24.3192 24.2701 24.053 24.9128 24.053 25.5829C24.053 26.253 24.3192 26.8956 24.793 27.3695C25.2668 27.8433 25.9095 28.1095 26.5796 28.1095C27.2497 28.1095 27.8924 27.8433 28.3662 27.3695C28.84 26.8956 29.1062 26.253 29.1062 25.5829C29.1062 24.9128 28.84 24.2701 28.3662 23.7963C27.8924 23.3224 27.2497 23.0563 26.5796 23.0563Z" fill="#44544A"/>
</svg>
